<svg width="75" height="74" viewBox="0 0 75 74" fill="none" xmlns="http://www.w3.org/2000/svg">
<path d="M34.691 1.99161C35.6642 -0.604038 39.3358 -0.604041 40.309 1.99161L44.3032 12.6439C44.9498 14.3684 46.9832 15.1085 48.587 14.2031L58.4939 8.61037C60.9079 7.24758 63.7205 9.6076 62.7976 12.2216L59.0101 22.9491C58.397 24.6858 59.4789 26.5598 61.2895 26.8971L72.4736 28.9809C75.1988 29.4886 75.8363 33.1044 73.4491 34.5136L63.6522 40.2968C62.0662 41.233 61.6904 43.3641 62.8606 44.7863L70.0887 53.5715C71.85 55.7122 70.0142 58.8918 67.2797 58.4369L56.0574 56.5698C54.2406 56.2675 52.583 57.6584 52.5652 59.5001L52.4552 70.8761C52.4284 73.6481 48.9783 74.9038 47.176 72.7976L39.7794 64.1537C38.582 62.7544 36.418 62.7544 35.2206 64.1537L27.824 72.7976C26.0217 74.9038 22.5716 73.6481 22.5448 70.8761L22.4348 59.5001C22.417 57.6584 20.7594 56.2675 18.9426 56.5698L7.72034 58.4369C4.98581 58.8918 3.15003 55.7122 4.9113 53.5715L12.1394 44.7863C13.3096 43.3641 12.9338 41.233 11.3478 40.2968L1.55088 34.5136C-0.836333 33.1044 -0.198781 29.4886 2.52644 28.9809L13.7105 26.8971C15.5211 26.5598 16.603 24.6858 15.9899 22.9491L12.2024 12.2216C11.2795 9.60761 14.0921 7.24758 16.5061 8.61036L26.413 14.2031C28.0168 15.1085 30.0502 14.3684 30.6968 12.6439L34.691 1.99161Z" fill="#F3841D"/>
</svg>
